ffmpeg started on 2016-12-07 at 13:59:36
Report written to "Output/x264/results/ffmpeg/crowd_run_2160p50slow10000k.log"
Command line:
Tools/ffmpeg/ffmpeg -benchmark -y -i Input/y4m/crowd_run_2160p50.y4m -c:v libx264 -preset slow -b:v 10000k -an Output/x264/encoded/crowd_run_2160p50slow10000k.mkv
ffmpeg version N-82227-gdb23fde Copyright (c) 2000-2016 the FFmpeg developers
  built with gcc 5.4.0 (Ubuntu 5.4.0-6ubuntu1~16.04.2) 20160609
  configuration: --prefix=/home/jaroslav/ffmpeg_build --pkg-config-flags=--static --extra-cflags=-I/home/jaroslav/ffmpeg_build/include --extra-ldflags=-L/home/jaroslav/ffmpeg_build/lib --bindir=/home/jaroslav/bin --enable-gpl --enable-libass --enable-libfdk-aac --enable-libfreetype --enable-libmp3lame --enable-libopus --enable-libtheora --enable-libvorbis --enable-libvpx --enable-libx264 --enable-libx265 --enable-nvenc --enable-libmfx --enable-libxvid --enable-libgsm --enable-libopencore-amrnb --enable-version3 --enable-nonfree
  libavutil      55. 35.100 / 55. 35.100
  libavcodec     57. 66.101 / 57. 66.101
  libavformat    57. 57.100 / 57. 57.100
  libavdevice    57.  2.100 / 57.  2.100
  libavfilter     6. 66.100 /  6. 66.100
  libswscale      4.  3.100 /  4.  3.100
  libswresample   2.  4.100 /  2.  4.100
  libpostproc    54.  2.100 / 54.  2.100
Input #0, yuv4mpegpipe, from 'Input/y4m/crowd_run_2160p50.y4m':
  Duration: 00:00:10.00, start: 0.000000, bitrate: 4976642 kb/s
    Stream #0:0: Video: rawvideo (I420 / 0x30323449), yuv420p(progressive), 3840x2160, SAR 1:1 DAR 16:9, 50 fps, 50 tbr, 50 tbn, 50 tbc
[libx264 @ 0x309b1c0] using SAR=1/1
[libx264 @ 0x309b1c0] using cpu capabilities: MMX2 SSE2Fast SSSE3 SSE4.2 AVX FMA3 AVX2 LZCNT BMI2
[libx264 @ 0x309b1c0] profile High, level 5.2
[libx264 @ 0x309b1c0] 264 - core 148 - H.264/MPEG-4 AVC codec - Copyleft 2003-2016 - http://www.videolan.org/x264.html - options: cabac=1 ref=5 deblock=1:0:0 analyse=0x3:0x113 me=hex subme=8 psy=1 psy_rd=1.00:0.00 mixed_ref=1 me_range=16 chroma_me=1 trellis=2 8x8dct=1 cqm=0 deadzone=21,11 fast_pskip=1 chroma_qp_offset=-2 threads=6 lookahead_threads=1 sliced_threads=0 nr=0 decimate=1 interlaced=0 bluray_compat=0 constrained_intra=0 bframes=3 b_pyramid=2 b_adapt=1 b_bias=0 direct=3 weightb=1 open_gop=0 weightp=2 keyint=250 keyint_min=25 scenecut=40 intra_refresh=0 rc_lookahead=50 rc=abr mbtree=1 bitrate=10000 ratetol=1.0 qcomp=0.60 qpmin=0 qpmax=69 qpstep=4 ip_ratio=1.40 aq=1:1.00
Output #0, matroska, to 'Output/x264/encoded/crowd_run_2160p50slow10000k.mkv':
  Metadata:
    encoder         : Lavf57.57.100
    Stream #0:0: Video: h264 (libx264) (H264 / 0x34363248), yuv420p, 3840x2160 [SAR 1:1 DAR 16:9], q=-1--1, 10000 kb/s, 50 fps, 1k tbn, 50 tbc
    Metadata:
      encoder         : Lavc57.66.101 libx264
    Side data:
      cpb: bitrate max/min/avg: 0/0/10000000 buffer size: 0 vbv_delay: -1
Stream mapping:
  Stream #0:0 -> #0:0 (rawvideo (native) -> h264 (libx264))
Press [q] to stop, [?] for help
frame=    9 fps=0.0 q=0.0 size=       0kB time=00:00:00.00 bitrate=N/A speed=   0x    frame=   25 fps= 24 q=0.0 size=       0kB time=00:00:00.00 bitrate=N/A speed=   0x    frame=   36 fps= 19 q=0.0 size=       0kB time=00:00:00.00 bitrate=N/A speed=   0x    frame=   41 fps= 17 q=0.0 size=       0kB time=00:00:00.00 bitrate=N/A speed=   0x    frame=   50 fps= 17 q=0.0 size=       0kB time=00:00:00.00 bitrate=N/A speed=   0x    frame=   57 fps=9.7 q=0.0 size=       0kB time=00:00:00.00 bitrate=N/A speed=   0x    frame=   62 fps=9.0 q=35.0 size=       1kB time=-00:00:00.01 bitrate=N/A speed=N/A    frame=   64 fps=8.6 q=35.0 size=       1kB time=00:00:00.02 bitrate= 279.6kbits/s speed=0.00281x    frame=   68 fps=8.4 q=41.0 size=       1kB time=00:00:00.10 bitrate=  58.1kbits/s speed=0.0125x    frame=   71 fps=8.2 q=45.0 size=       1kB time=00:00:00.16 bitrate=  36.5kbits/s speed=0.0186x    frame=   78 fps=8.5 q=50.0 size=       1kB time=00:00:00.30 bitrate=  19.5kbits/s speed=0.0326x    frame=   83 fps=8.4 q=49.0 size=       1kB time=00:00:00.40 bitrate=  14.6kbits/s speed=0.0404x    frame=   87 fps=8.3 q=49.0 size=       1kB time=00:00:00.48 bitrate=  12.2kbits/s speed=0.0457x    frame=   95 fps=8.4 q=48.0 size=       1kB time=00:00:00.64 bitrate=   9.2kbits/s speed=0.0567x    frame=  101 fps=8.5 q=48.0 size=       1kB time=00:00:00.76 bitrate=   7.7kbits/s speed=0.0644x    frame=  104 fps=8.4 q=48.0 size=       1kB time=00:00:00.82 bitrate=   7.2kbits/s speed=0.0664x    frame=  110 fps=8.5 q=48.0 size=       1kB time=00:00:00.94 bitrate=   6.2kbits/s speed=0.0731x    frame=  114 fps=8.5 q=48.0 size=       1kB time=00:00:01.02 bitrate=   5.8kbits/s speed=0.0763x    frame=  119 fps=8.4 q=47.0 size=       1kB time=00:00:01.12 bitrate=   5.2kbits/s speed=0.0792x    frame=  125 fps=8.5 q=47.0 size=       1kB time=00:00:01.24 bitrate=   4.7kbits/s speed=0.0845x    frame=  129 fps=8.5 q=47.0 size=       1kB time=00:00:01.32 bitrate=   4.4kbits/s speed=0.0869x    frame=  133 fps=8.3 q=47.0 size=       1kB time=00:00:01.40 bitrate=   4.2kbits/s speed=0.0877x    frame=  139 fps=8.3 q=47.0 size=       1kB time=00:00:01.52 bitrate=   3.9kbits/s speed=0.0913x    frame=  145 fps=8.4 q=46.0 size=       1kB time=00:00:01.64 bitrate=   3.6kbits/s speed=0.0954x    frame=  148 fps=8.3 q=46.0 size=       1kB time=00:00:01.70 bitrate=   3.5kbits/s speed=0.0956x    frame=  154 fps=8.4 q=46.0 size=       1kB time=00:00:01.82 bitrate=   3.2kbits/s speed=0.0995x    frame=  158 fps=8.4 q=46.0 size=       1kB time=00:00:01.90 bitrate=   3.1kbits/s speed=0.101x    frame=  163 fps=8.3 q=46.0 size=       1kB time=00:00:02.00 bitrate=   2.9kbits/s speed=0.102x    frame=  169 fps=8.4 q=46.0 size=       1kB time=00:00:02.12 bitrate=   2.8kbits/s speed=0.106x    frame=  171 fps=8.3 q=46.0 size=       1kB time=00:00:02.16 bitrate=   2.7kbits/s speed=0.104x    frame=  177 fps=8.3 q=46.0 size=       1kB time=00:00:02.28 bitrate=   2.6kbits/s speed=0.107x    frame=  180 fps=8.3 q=46.0 size=       1kB time=00:00:02.34 bitrate=   2.5kbits/s speed=0.107x    frame=  187 fps=8.2 q=46.0 size=       1kB time=00:00:02.48 bitrate=   2.4kbits/s speed=0.109x    frame=  192 fps=8.3 q=46.0 size=       1kB time=00:00:02.58 bitrate=   2.3kbits/s speed=0.111x    frame=  196 fps=8.2 q=46.0 size=       1kB time=00:00:02.66 bitrate=   2.2kbits/s speed=0.112x    frame=  200 fps=8.2 q=46.0 size=       1kB time=00:00:02.74 bitrate=   2.1kbits/s speed=0.113x    frame=  205 fps=8.3 q=46.0 size=       1kB time=00:00:02.84 bitrate=   2.1kbits/s speed=0.114x    frame=  209 fps=8.2 q=46.0 size=       1kB time=00:00:02.92 bitrate=   2.0kbits/s speed=0.115x    frame=  213 fps=8.2 q=46.0 size=       1kB time=00:00:03.00 bitrate=   2.0kbits/s speed=0.116x    frame=  218 fps=8.3 q=46.0 size=       1kB time=00:00:03.10 bitrate=   1.9kbits/s speed=0.117x    frame=  221 fps=8.2 q=46.0 size=       1kB time=00:00:03.16 bitrate=   1.9kbits/s speed=0.117x    frame=  227 fps=8.1 q=45.0 size=       1kB time=00:00:03.28 bitrate=   1.8kbits/s speed=0.118x    frame=  231 fps=8.1 q=45.0 size=       1kB time=00:00:03.36 bitrate=   1.7kbits/s speed=0.118x    frame=  236 fps=8.2 q=45.0 size=       1kB time=00:00:03.46 bitrate=   1.7kbits/s speed=0.12x    frame=  240 fps=8.1 q=45.0 size=       1kB time=00:00:03.54 bitrate=   1.7kbits/s speed=0.12x    frame=  244 fps=8.1 q=45.0 size=       1kB time=00:00:03.62 bitrate=   1.6kbits/s speed=0.121x    frame=  249 fps=8.2 q=45.0 size=       1kB time=00:00:03.72 bitrate=   1.6kbits/s speed=0.122x    frame=  252 fps=8.1 q=45.0 size=       1kB time=00:00:03.78 bitrate=   1.6kbits/s speed=0.122x    frame=  258 fps=8.2 q=45.0 size=       1kB time=00:00:03.90 bitrate=   1.5kbits/s speed=0.123x    frame=  261 fps=8.1 q=45.0 size=       1kB time=00:00:03.96 bitrate=   1.5kbits/s speed=0.123x    frame=  265 fps=8.1 q=45.0 size=    5165kB time=00:00:04.04 bitrate=10470.0kbits/s speed=0.124x    frame=  271 fps=8.1 q=45.0 size=    5165kB time=00:00:04.16 bitrate=10168.1kbits/s speed=0.124x    frame=  275 fps=8.1 q=45.0 size=    5165kB time=00:00:04.24 bitrate=9976.3kbits/s speed=0.124x    frame=  280 fps=8.1 q=45.0 size=    5165kB time=00:00:04.34 bitrate=9746.4kbits/s speed=0.125x    frame=  283 fps=8.0 q=45.0 size=    5165kB time=00:00:04.40 bitrate=9613.6kbits/s speed=0.125x    frame=  290 fps=8.1 q=45.0 size=    5165kB time=00:00:04.54 bitrate=9317.2kbits/s speed=0.127x    frame=  292 fps=8.0 q=45.0 size=    5165kB time=00:00:04.58 bitrate=9235.8kbits/s speed=0.126x    frame=  298 fps=8.0 q=45.0 size=    5165kB time=00:00:04.70 bitrate=9000.1kbits/s speed=0.127x    frame=  302 fps=8.0 q=45.0 size=    5165kB time=00:00:04.78 bitrate=8849.5kbits/s speed=0.127x    frame=  306 fps=7.8 q=42.0 size=    5165kB time=00:00:04.86 bitrate=8703.8kbits/s speed=0.124x    frame=  312 fps=7.9 q=46.0 size=    6282kB time=00:00:04.98 bitrate=10332.2kbits/s speed=0.125x    frame=  317 fps=7.9 q=45.0 size=    6282kB time=00:00:05.08 bitrate=10128.9kbits/s speed=0.126x    frame=  321 fps=7.9 q=46.0 size=    6282kB time=00:00:05.16 bitrate=9971.9kbits/s speed=0.126x    frame=  326 fps=7.9 q=46.0 size=    6282kB time=00:00:05.26 bitrate=9782.3kbits/s speed=0.127x    frame=  330 fps=7.9 q=46.0 size=    6282kB time=00:00:05.34 bitrate=9635.8kbits/s speed=0.127x    frame=  335 fps=7.9 q=46.0 size=    6282kB time=00:00:05.44 bitrate=9458.7kbits/s speed=0.128x    frame=  339 fps=7.9 q=45.0 size=    6282kB time=00:00:05.52 bitrate=9321.7kbits/s speed=0.128x    frame=  342 fps=7.8 q=45.0 size=    6282kB time=00:00:05.58 bitrate=9221.4kbits/s speed=0.128x    frame=  349 fps=7.8 q=45.0 size=    6282kB time=00:00:05.72 bitrate=8995.8kbits/s speed=0.128x    frame=  354 fps=7.8 q=45.0 size=    6282kB time=00:00:05.82 bitrate=8841.2kbits/s speed=0.129x    frame=  357 fps=7.8 q=45.0 size=    6282kB time=00:00:05.88 bitrate=8751.0kbits/s speed=0.129x    frame=  362 fps=7.8 q=45.0 size=    6282kB time=00:00:05.98 bitrate=8604.7kbits/s speed=0.13x    frame=  365 fps=7.8 q=45.0 size=    6282kB time=00:00:06.04 bitrate=8519.3kbits/s speed=0.129x    frame=  371 fps=7.9 q=45.0 size=    6282kB time=00:00:06.16 bitrate=8353.3kbits/s speed=0.131x    frame=  373 fps=7.8 q=45.0 size=    6282kB time=00:00:06.20 bitrate=8299.4kbits/s speed=0.13x    frame=  379 fps=7.8 q=45.0 size=    6282kB time=00:00:06.32 bitrate=8141.9kbits/s speed=0.131x    frame=  382 fps=7.8 q=45.0 size=    6282kB time=00:00:06.38 bitrate=8065.3kbits/s speed=0.131x    frame=  388 fps=7.9 q=45.0 size=    6282kB time=00:00:06.50 bitrate=7916.5kbits/s speed=0.132x    frame=  390 fps=7.8 q=45.0 size=    6282kB time=00:00:06.54 bitrate=7868.0kbits/s speed=0.131x    frame=  397 fps=7.8 q=45.0 size=    6282kB time=00:00:06.68 bitrate=7703.2kbits/s speed=0.131x    frame=  403 fps=7.8 q=45.0 size=    6282kB time=00:00:06.80 bitrate=7567.3kbits/s speed=0.132x    frame=  405 fps=7.8 q=45.0 size=    6282kB time=00:00:06.84 bitrate=7523.0kbits/s speed=0.132x    frame=  411 fps=7.8 q=45.0 size=    6282kB time=00:00:06.96 bitrate=7393.3kbits/s speed=0.133x    frame=  413 fps=7.8 q=45.0 size=    6282kB time=00:00:07.00 bitrate=7351.1kbits/s speed=0.132x    frame=  419 fps=7.8 q=45.0 size=    6282kB time=00:00:07.12 bitrate=7227.2kbits/s speed=0.133x    frame=  421 fps=7.8 q=45.0 size=    6282kB time=00:00:07.16 bitrate=7186.8kbits/s speed=0.132x    frame=  427 fps=7.8 q=45.0 size=    6282kB time=00:00:07.28 bitrate=7068.4kbits/s speed=0.133x    frame=  429 fps=7.8 q=45.0 size=    6282kB time=00:00:07.32 bitrate=7029.8kbits/s speed=0.132x    frame=  435 fps=7.8 q=45.0 size=    6282kB time=00:00:07.44 bitrate=6916.4kbits/s speed=0.133x    frame=  438 fps=7.8 q=45.0 size=    6282kB time=00:00:07.50 bitrate=6861.1kbits/s speed=0.133x    frame=  444 fps=7.8 q=45.0 size=    6282kB time=00:00:07.62 bitrate=6753.0kbits/s speed=0.133x    frame=  449 fps=7.8 q=45.0 size=    6282kB time=00:00:07.72 bitrate=6665.6kbits/s speed=0.134x    frame=  453 fps=7.8 q=45.0 size=    6282kB time=00:00:07.80 bitrate=6597.2kbits/s speed=0.133x    frame=  460 fps=7.8 q=45.0 size=    6282kB time=00:00:07.94 bitrate=6480.9kbits/s speed=0.135x    frame=  461 fps=7.8 q=45.0 size=    6282kB time=00:00:07.96 bitrate=6464.6kbits/s speed=0.134x    frame=  467 fps=7.8 q=45.0 size=    6282kB time=00:00:08.08 bitrate=6368.6kbits/s speed=0.135x    frame=  469 fps=7.7 q=45.0 size=    6282kB time=00:00:08.12 bitrate=6337.3kbits/s speed=0.134x    frame=  476 fps=7.8 q=45.0 size=    6282kB time=00:00:08.26 bitrate=6229.9kbits/s speed=0.135x    frame=  480 fps=7.8 q=45.0 size=    6282kB time=00:00:08.34 bitrate=6170.1kbits/s speed=0.135x    frame=  483 fps=7.8 q=45.0 size=    6282kB time=00:00:08.40 bitrate=6126.0kbits/s speed=0.135x    frame=  489 fps=7.7 q=45.0 size=    6282kB time=00:00:08.52 bitrate=6039.8kbits/s speed=0.135x    frame=  495 fps=7.8 q=45.0 size=    6282kB time=00:00:08.64 bitrate=5955.9kbits/s speed=0.136x    frame=  497 fps=7.7 q=45.0 size=    6282kB time=00:00:08.68 bitrate=5928.4kbits/s speed=0.135x    frame=  500 fps=7.0 q=-1.0 Lsize=   12223kB time=00:00:09.94 bitrate=10072.1kbits/s speed=0.14x    
video:12218kB audio:0kB subtitle:0kB other streams:0kB global headers:0kB muxing overhead: 0.036823%
bench: utime=246.096s
bench: maxrss=2148196kB
[libx264 @ 0x309b1c0] frame I:2     Avg QP:35.09  size:368546
[libx264 @ 0x309b1c0] frame P:126   Avg QP:44.45  size: 48321
[libx264 @ 0x309b1c0] frame B:372   Avg QP:47.44  size: 15282
[libx264 @ 0x309b1c0] consecutive B-frames:  0.8%  0.0%  0.0% 99.2%
[libx264 @ 0x309b1c0] mb I  I16..4: 22.8% 69.5%  7.7%
[libx264 @ 0x309b1c0] mb P  I16..4:  2.7%  3.4%  0.0%  P16..4: 33.0%  4.3%  4.6%  0.0%  0.0%    skip:52.0%
[libx264 @ 0x309b1c0] mb B  I16..4:  0.0%  0.1%  0.0%  B16..8: 37.1%  1.0%  0.1%  direct: 0.2%  skip:61.5%  L0:40.6% L1:59.0% BI: 0.4%
[libx264 @ 0x309b1c0] final ratefactor: 37.18
[libx264 @ 0x309b1c0] 8x8 transform intra:58.7% inter:89.9%
[libx264 @ 0x309b1c0] direct mvs  spatial:98.9% temporal:1.1%
[libx264 @ 0x309b1c0] coded y,uvDC,uvAC intra: 27.3% 48.4% 15.6% inter: 2.1% 5.0% 0.1%
[libx264 @ 0x309b1c0] i16 v,h,dc,p: 36% 22%  7% 34%
[libx264 @ 0x309b1c0] i8 v,h,dc,ddl,ddr,vr,hd,vl,hu:  8%  4%  8% 12% 15% 15% 14% 12% 11%
[libx264 @ 0x309b1c0] i4 v,h,dc,ddl,ddr,vr,hd,vl,hu:  5%  3%  2% 14% 18% 15% 16% 12% 15%
[libx264 @ 0x309b1c0] i8c dc,h,v,p: 54% 17% 16% 13%
[libx264 @ 0x309b1c0] Weighted P-Frames: Y:1.6% UV:0.8%
[libx264 @ 0x309b1c0] ref P L0: 67.5%  5.0% 16.9%  5.1%  5.5%  0.1%
[libx264 @ 0x309b1c0] ref B L0: 92.9%  5.4%  1.3%  0.5%
[libx264 @ 0x309b1c0] ref B L1: 98.3%  1.7%
[libx264 @ 0x309b1c0] kb/s:10008.46
